<?xml version="1.0" encoding="UTF-8"?>
<svg width="512" height="512" viewBox="0 0 512 512" fill="none" xmlns="http://www.w3.org/2000/svg">
  <rect width="512" height="512" rx="128" fill="#1a1a1a"/>
  <path d="M256 128C179.307 128 118 189.307 118 256C118 322.693 179.307 384 256 384C322.693 384 384 322.693 384 256C384 189.307 322.693 128 256 128ZM256 352C197.019 352 150 304.981 150 246C150 187.019 197.019 140 256 140C314.981 140 362 187.019 362 246C362 304.981 314.981 352 256 352Z" fill="#00a8ff"/>
  <path d="M256 176C214.065 176 180 210.065 180 252C180 293.935 214.065 328 256 328C297.935 328 332 293.935 332 252C332 210.065 297.935 176 256 176ZM256 296C225.072 296 200 270.928 200 240C200 209.072 225.072 184 256 184C286.928 184 312 209.072 312 240C312 270.928 286.928 296 256 296Z" fill="#00a8ff"/>
  <circle cx="256" cy="240" r="32" fill="#00a8ff"/>
</svg> 